<svg xmlns="http://www.w3.org/2000/svg" width="26" height="32" viewBox="0 0 26 32">
  <metadata><?xpacket begin="﻿" id="W5M0MpCehiHzreSzNTczkc9d"?>
<x:xmpmeta xmlns:x="adobe:ns:meta/" x:xmptk="Adobe XMP Core 5.6-c138 79.159824, 2016/09/14-01:09:01        ">
   <rdf:RDF xmlns:rdf="http://www.w3.org/1999/02/22-rdf-syntax-ns#">
      <rdf:Description rdf:about=""/>
   </rdf:RDF>
</x:xmpmeta>
                                                                                                    
                                                                                                    
                                                                                                    
                                                                                                    
                                                                                                    
                                                                                                    
                                                                                                    
                                                                                                    
                                                                                                    
                                                                                                    
                                                                                                    
                                                                                                    
                                                                                                    
                                                                                                    
                                                                                                    
                                                                                                    
                                                                                                    
                                                                                                    
                                                                                                    
                                                                                                    
                           
<?xpacket end="w"?></metadata>
<defs>
    <style>
      .cls-1 {
        fill-rule: evenodd;
      }
    </style>
  </defs>
  <path id="Р" class="cls-1" d="M-0.356,14.635H3.326V0.135h8.889a32.6,32.6,0,0,1,7.253.5C23.1,1.59,25.877,4.863,25.877,9.953c0,5.818-3.727,8.863-7.091,9.59A30.757,30.757,0,0,1,12.533,20H9.494v2.727H24.514v5.363H9.494V32H3.326V28.089H-0.356V22.726H3.326V20H-0.356V14.635Zm9.85-9.091v9.045h2.357a13.882,13.882,0,0,0,4.662-.5,4.223,4.223,0,0,0,2.727-4.045A4.205,4.205,0,0,0,15.65,5.771a25.013,25.013,0,0,0-4.208-.227H9.494Z"/>
</svg>
